<svg width="128" height="128" viewBox="0 0 128 128" xmlns="http://www.w3.org/2000/svg">
  <!-- Background circle -->
  <circle cx="64" cy="64" r="60" fill="#1e293b" stroke="#0ea5e9" stroke-width="4"/>
  
  <!-- AI Brain pattern -->
  <circle cx="40" cy="40" r="6" fill="#22d3ee"/>
  <circle cx="64" cy="35" r="8" fill="#3b82f6"/>
  <circle cx="88" cy="40" r="6" fill="#8b5cf6"/>
  
  <circle cx="30" cy="64" r="6" fill="#10b981"/>
  <circle cx="64" cy="64" r="10" fill="#ef4444"/>
  <circle cx="98" cy="64" r="6" fill="#f59e0b"/>
  
  <circle cx="40" cy="88" r="6" fill="#ec4899"/>
  <circle cx="64" cy="93" r="8" fill="#84cc16"/>
  <circle cx="88" cy="88" r="6" fill="#f97316"/>
  
  <!-- Neural connections -->
  <line x1="40" y1="40" x2="64" y2="35" stroke="#4ade80" stroke-width="2" opacity="0.7"/>
  <line x1="64" y1="35" x2="88" y2="40" stroke="#60a5fa" stroke-width="2" opacity="0.7"/>
  <line x1="40" y1="40" x2="30" y2="64" stroke="#34d399" stroke-width="2" opacity="0.7"/>
  <line x1="64" y1="35" x2="64" y2="64" stroke="#f87171" stroke-width="2" opacity="0.7"/>
  <line x1="88" y1="40" x2="98" y2="64" stroke="#fbbf24" stroke-width="2" opacity="0.7"/>
  <line x1="30" y1="64" x2="64" y2="64" stroke="#f472b6" stroke-width="2" opacity="0.7"/>
  <line x1="64" y1="64" x2="98" y2="64" stroke="#a3e635" stroke-width="2" opacity="0.7"/>
  <line x1="40" y1="88" x2="64" y2="64" stroke="#fb923c" stroke-width="2" opacity="0.7"/>
  <line x1="64" y1="64" x2="64" y2="93" stroke="#a78bfa" stroke-width="2" opacity="0.7"/>
  <line x1="64" y1="93" x2="88" y2="88" stroke="#34d399" stroke-width="2" opacity="0.7"/>
  
  <!-- Central AI text -->
  <text x="64" y="75" text-anchor="middle" fill="white" font-family="Arial, sans-serif" font-size="18" font-weight="bold">AI</text>
</svg>
