<svg width="32" height="32" viewBox="0 0 32 32" fill="none" xmlns="http://www.w3.org/2000/svg">
  <!-- Background -->
  <rect width="32" height="32" rx="4" fill="#f7fafc"/>
  
  <!-- Developer head -->
  <ellipse cx="16" cy="12" rx="6" ry="5" fill="#d69e2e" stroke="#2d3748" stroke-width="1.5"/>
  
  <!-- Hair -->
  <path d="M10 10 Q16 6 22 10 Q20 8 16 8 Q12 8 10 10" fill="#8b4513"/>
  
  <!-- Face -->
  <ellipse cx="16" cy="13" rx="4.5" ry="4" fill="#f7d794"/>
  
  <!-- Glasses -->
  <rect x="12" y="12" width="3" height="2.5" rx="0.5" fill="none" stroke="#2d3748" stroke-width="1"/>
  <rect x="17" y="12" width="3" height="2.5" rx="0.5" fill="none" stroke="#2d3748" stroke-width="1"/>
  <line x1="15" y1="13" x2="17" y2="13" stroke="#2d3748" stroke-width="1"/>
  
  <!-- Glasses bridge -->
  <line x1="11.5" y1="13" x2="10.5" y2="13" stroke="#2d3748" stroke-width="1"/>
  <line x1="20.5" y1="13" x2="21.5" y2="13" stroke="#2d3748" stroke-width="1"/>
  
  <!-- Body/Shirt -->
  <rect x="10" y="17" width="12" height="8" rx="2" fill="#4a90e2"/>
  
  <!-- Laptop -->
  <rect x="8" y="23" width="16" height="7" rx="1" fill="#e2e8f0" stroke="#2d3748" stroke-width="1"/>
  
  <!-- Laptop screen -->
  <rect x="9" y="24" width="14" height="5" rx="0.5" fill="#2d3748"/>
  
  <!-- Code on screen -->
  <text x="10.5" y="26.5" font-family="monospace" font-size="2" fill="#68d391">&lt;/&gt;</text>
  <circle cx="20" cy="26" r="0.8" fill="#f56565"/>
  
  <!-- Laptop base -->
  <rect x="7" y="29" width="18" height="2" rx="1" fill="#a0aec0"/>
  
  <!-- Arms -->
  <rect x="8" y="19" width="2" height="6" rx="1" fill="#f7d794"/>
  <rect x="22" y="19" width="2" height="6" rx="1" fill="#f7d794"/>
  
  <!-- Hands on keyboard -->
  <ellipse cx="9" cy="27" rx="1" ry="0.8" fill="#f7d794"/>
  <ellipse cx="23" cy="27" rx="1" ry="0.8" fill="#f7d794"/>
</svg>
